<svg xmlns="http://www.w3.org/2000/svg"  viewBox="0 0 512 512" width="64px" height="64px"><path fill="#8bd0f7" d="M497,48V448s4,47-42,47H61c-44,0-44-47-44-47V48c4.27.17,35.25.19,47.5-32.52,13.17,35.17,48,32.5,48,32.5s34.83,2.67,48-32.5c13.17,35.17,48,32.5,48,32.5s34.83,2.67,48-32.5c13.17,35.17,48,32.5,48,32.5h1s34.83,2.67,48-32.5c13.17,35.17,48,32.5,48,32.5s34.83,2.67,48-32.5C461.74,48.19,492.7,48.19,497,48Z"/><path fill="#fff" d="M163,105s0,41,47,41,49-41,49-41-12.5,24-48,24S163,105,163,105Z" opacity=".5"/><path fill="#fff" d="M63,22s0,41,47,41,49-41,49-41-12.5,24-48,24S63,22,63,22Z" opacity=".5"/><path fill="#fff" d="M161,22s0,41,47,41,49-41,49-41-12.5,24-48,24S161,22,161,22Z" opacity=".5"/><path fill="#fff" d="M258,22s0,41,47,41,49-41,49-41-12.5,24-48,24S258,22,258,22Z" opacity=".5"/><path fill="#fff" d="M354,22s0,41,47,41,49-41,49-41-12.5,24-48,24S354,22,354,22Z" opacity=".5"/><path fill="#fff" d="M259,105s0,41,47,41,49-41,49-41-12.5,24-48,24S259,105,259,105Z" opacity=".5"/><path fill="#fff" d="M65,185s0,41,47,41,49-41,49-41-12.5,24-48,24S65,185,65,185Z" opacity=".5"/><path fill="#fff" d="M353,185s0,41,47,41,49-41,49-41-12.5,24-48,24S353,185,353,185Z" opacity=".5"/><path fill="#fff" d="M163,265s0,41,47,41,49-41,49-41-12.5,24-48,24S163,265,163,265Z" opacity=".5"/><path fill="#fff" d="M259,265s0,41,47,41,49-41,49-41-12.5,24-48,24S259,265,259,265Z" opacity=".5"/><path fill="#fff" d="M163,426s0,41,47,41,49-41,49-41-12.5,24-48,24S163,426,163,426Z" opacity=".5"/><path fill="#fff" d="M259,426s0,41,47,41,49-41,49-41-12.5,24-48,24S259,426,259,426Z" opacity=".5"/><path fill="#fff" d="M65,345s0,41,47,41,49-41,49-41-12.5,24-48,24S65,345,65,345Z" opacity=".5"/><path fill="#fff" d="M353,345s0,41,47,41,49-41,49-41-12.5,24-48,24S353,345,353,345Z" opacity=".5"/><g><path fill="#3f456b" d="M110.84,53a57.87,57.87,0,0,1-19.1-3.4C81.3,45.88,67.29,37.21,59.82,17.25a5,5,0,1,1,9.36-3.5C80.82,44.84,110.86,43.1,112.13,43a5,5,0,0,1,.75,10C112.78,53,112.05,53,110.84,53Z"/><path fill="#3f456b" d="M18.16,53c-1.21,0-1.94,0-2,0a5,5,0,0,1,.76-10c1.25.09,31.3,1.83,42.94-29.26a5,5,0,0,1,9.36,3.5c-7.47,20-21.48,28.63-31.92,32.39A57.87,57.87,0,0,1,18.16,53Z"/><path fill="#3f456b" d="M206.84,53a57.87,57.87,0,0,1-19.1-3.4c-10.44-3.76-24.45-12.43-31.92-32.39a5,5,0,1,1,9.36-3.5C176.82,44.84,206.86,43.1,208.13,43a5,5,0,0,1,.75,10C208.78,53,208.05,53,206.84,53Z"/><path fill="#3f456b" d="M114.16,53c-1.21,0-1.94,0-2,0a5,5,0,0,1,.75-10c1.28.1,31.31,1.82,42.95-29.26a5,5,0,0,1,9.36,3.5c-7.47,20-21.48,28.63-31.92,32.39A57.87,57.87,0,0,1,114.16,53Z"/><path fill="#3f456b" d="M302.84,53a57.87,57.87,0,0,1-19.1-3.4c-10.44-3.76-24.45-12.43-31.92-32.39a5,5,0,0,1,9.36-3.5C272.82,44.84,302.86,43.1,304.13,43a5,5,0,0,1,.75,10C304.78,53,304.05,53,302.84,53Z"/><path fill="#3f456b" d="M210.16,53c-1.21,0-1.94,0-2,0a5,5,0,0,1,.75-10c1.28.1,31.31,1.82,42.95-29.26a5,5,0,1,1,9.36,3.5c-7.47,20-21.48,28.63-31.92,32.39A57.87,57.87,0,0,1,210.16,53Z"/><path fill="#3f456b" d="M399.84,53a57.87,57.87,0,0,1-19.1-3.4c-10.44-3.76-24.45-12.43-31.92-32.39a5,5,0,0,1,9.36-3.5C369.82,44.84,399.86,43.1,401.13,43a5,5,0,0,1,.75,10C401.78,53,401.05,53,399.84,53Z"/><path fill="#3f456b" d="M307.16,53c-1.21,0-1.94,0-2,0a5,5,0,0,1,.75-10c1.28.1,31.31,1.82,42.95-29.26a5,5,0,1,1,9.36,3.5c-7.47,20-21.48,28.63-31.92,32.39A57.87,57.87,0,0,1,307.16,53Z"/><path fill="#3f456b" d="M495.84,53a57.87,57.87,0,0,1-19.1-3.4c-10.44-3.76-24.45-12.43-31.92-32.39a5,5,0,0,1,9.36-3.5C465.82,44.84,495.86,43.1,497.13,43a5,5,0,0,1,.75,10C497.78,53,497.05,53,495.84,53Z"/><path fill="#3f456b" d="M403.16,53c-1.21,0-1.94,0-2,0a5,5,0,0,1,.75-10c1.28.1,31.31,1.82,42.95-29.26a5,5,0,1,1,9.36,3.5c-7.47,20-21.48,28.63-31.92,32.39A57.87,57.87,0,0,1,403.16,53Z"/><path fill="#3f456b" d="M208.84,134a57.87,57.87,0,0,1-19.1-3.4c-10.44-3.76-24.45-12.43-31.92-32.39a5,5,0,1,1,9.36-3.5C178.9,126,209.81,124,210.12,124a5,5,0,1,1,.76,10C210.78,134,210.05,134,208.84,134Z"/><path fill="#3f456b" d="M116.16,134c-1.21,0-1.94,0-2,0a5,5,0,0,1,.75-10c1.34.09,31.32,1.79,42.95-29.26a5,5,0,0,1,9.36,3.5c-7.47,20-21.48,28.63-31.92,32.39A57.87,57.87,0,0,1,116.16,134Z"/><path fill="#3f456b" d="M304.84,134a57.87,57.87,0,0,1-19.1-3.4c-10.44-3.76-24.45-12.43-31.92-32.39a5,5,0,0,1,9.36-3.5C274.9,126,305.81,124,306.12,124a5,5,0,1,1,.76,10C306.78,134,306.05,134,304.84,134Z"/><path fill="#3f456b" d="M212.16,134c-1.21,0-1.94,0-2,0a5,5,0,0,1,.75-10c1.34.09,31.32,1.79,42.95-29.26a5,5,0,0,1,9.36,3.5c-7.47,20-21.48,28.63-31.92,32.39A57.87,57.87,0,0,1,212.16,134Z"/><path fill="#3f456b" d="M400.84,134a57.87,57.87,0,0,1-19.1-3.4c-10.44-3.76-24.45-12.43-31.92-32.39a5,5,0,0,1,9.36-3.5C370.9,126,401.81,124,402.12,124a5,5,0,0,1,.76,10C402.78,134,402.05,134,400.84,134Z"/><path fill="#3f456b" d="M308.16,134c-1.21,0-1.94,0-2,0a5,5,0,0,1,.75-10c1.34.09,31.32,1.79,42.95-29.26a5,5,0,1,1,9.36,3.5c-7.47,20-21.48,28.63-31.92,32.39A57.87,57.87,0,0,1,308.16,134Z"/><path fill="#3f456b" d="M110.84,215a57.87,57.87,0,0,1-19.1-3.4c-10.44-3.76-24.45-12.43-31.92-32.39a5,5,0,1,1,9.36-3.5C80.9,207,111.81,205,112.12,205a5,5,0,1,1,.76,10C112.78,215,112.05,215,110.84,215Z"/><path fill="#3f456b" d="M18.16,215c-1.21,0-1.94,0-2,0a5,5,0,0,1,.75-10c1.34.1,31.32,1.79,43-29.26a5,5,0,0,1,9.36,3.5c-7.47,20-21.48,28.63-31.92,32.39A57.87,57.87,0,0,1,18.16,215Z"/><path fill="#3f456b" d="M206.84,215a57.87,57.87,0,0,1-19.1-3.4c-10.44-3.76-24.45-12.43-31.92-32.39a5,5,0,0,1,9.36-3.5C176.9,207,207.81,205,208.12,205a5,5,0,1,1,.76,10C208.78,215,208.05,215,206.84,215Z"/><path fill="#3f456b" d="M114.16,215c-1.21,0-1.94,0-2,0a5,5,0,0,1,.75-10c1.34.1,31.32,1.79,42.95-29.26a5,5,0,1,1,9.36,3.5c-7.47,20-21.48,28.63-31.92,32.39A57.87,57.87,0,0,1,114.16,215Z"/><path fill="#3f456b" d="M398.84,215a57.87,57.87,0,0,1-19.1-3.4c-10.44-3.76-24.45-12.43-31.92-32.39a5,5,0,0,1,9.36-3.5C368.9,207,399.81,205,400.12,205a5,5,0,0,1,.76,10C400.78,215,400.05,215,398.84,215Z"/><path fill="#3f456b" d="M306.16,215c-1.21,0-1.94,0-2,0a5,5,0,0,1,.75-10c1.34.1,31.32,1.79,42.95-29.26a5,5,0,1,1,9.36,3.5c-7.47,20-21.48,28.63-31.92,32.39A57.87,57.87,0,0,1,306.16,215Z"/><path fill="#3f456b" d="M494.84,215a57.87,57.87,0,0,1-19.1-3.4c-10.44-3.76-24.45-12.43-31.92-32.39a5,5,0,1,1,9.36-3.5C464.9,207,495.81,205,496.12,205a5,5,0,0,1,.76,10C496.78,215,496.05,215,494.84,215Z"/><path fill="#3f456b" d="M402.16,215c-1.21,0-1.94,0-2,0a5,5,0,0,1,.75-10c1.34.1,31.32,1.79,42.95-29.26a5,5,0,1,1,9.36,3.5c-7.47,20-21.48,28.63-31.92,32.39A57.87,57.87,0,0,1,402.16,215Z"/><path fill="#3f456b" d="M208.84,294a57.87,57.87,0,0,1-19.1-3.4c-10.44-3.76-24.45-12.43-31.92-32.39a5,5,0,0,1,9.36-3.5C178.9,286,209.81,284,210.12,284a5,5,0,0,1,.76,10C210.78,294,210.05,294,208.84,294Z"/><path fill="#3f456b" d="M116.16,294c-1.21,0-1.94-.05-2-.05a5,5,0,0,1,.75-10c1.34.1,31.32,1.79,42.95-29.26a5,5,0,1,1,9.36,3.5c-7.47,20-21.48,28.63-31.92,32.39A57.87,57.87,0,0,1,116.16,294Z"/><path fill="#3f456b" d="M304.84,294a57.87,57.87,0,0,1-19.1-3.4c-10.44-3.76-24.45-12.43-31.92-32.39a5,5,0,0,1,9.36-3.5C274.9,286,305.81,284,306.12,284a5,5,0,0,1,.76,10C306.78,294,306.05,294,304.84,294Z"/><path fill="#3f456b" d="M212.16,294c-1.21,0-1.94-.05-2-.05a5,5,0,0,1,.75-10c1.34.1,31.32,1.79,42.95-29.26a5,5,0,1,1,9.36,3.5c-7.47,20-21.48,28.63-31.92,32.39A57.87,57.87,0,0,1,212.16,294Z"/><path fill="#3f456b" d="M400.84,294a57.87,57.87,0,0,1-19.1-3.4c-10.44-3.76-24.45-12.43-31.92-32.39a5,5,0,1,1,9.36-3.5C370.9,286,401.81,284,402.12,284a5,5,0,0,1,.76,10C402.78,294,402.05,294,400.84,294Z"/><path fill="#3f456b" d="M308.16,294c-1.21,0-1.94-.05-2-.05a5,5,0,0,1,.75-10c1.34.1,31.32,1.79,42.95-29.26a5,5,0,1,1,9.36,3.5c-7.47,20-21.48,28.63-31.92,32.39A57.87,57.87,0,0,1,308.16,294Z"/><path fill="#3f456b" d="M208.84,455a57.87,57.87,0,0,1-19.1-3.4c-10.44-3.76-24.45-12.43-31.92-32.39a5,5,0,0,1,9.36-3.5C178.9,447,209.81,445,210.12,445a5,5,0,0,1,.76,10C210.78,455,210.05,455,208.84,455Z"/><path fill="#3f456b" d="M116.16,455c-1.21,0-1.94-.05-2-.05a5,5,0,0,1,.75-10c1.34.1,31.32,1.79,42.95-29.26a5,5,0,1,1,9.36,3.5c-7.47,20-21.48,28.63-31.92,32.39A57.87,57.87,0,0,1,116.16,455Z"/><path fill="#3f456b" d="M304.84,455a57.87,57.87,0,0,1-19.1-3.4c-10.44-3.76-24.45-12.43-31.92-32.39a5,5,0,0,1,9.36-3.5C274.9,447,305.81,445,306.12,445a5,5,0,0,1,.76,10C306.78,455,306.05,455,304.84,455Z"/><path fill="#3f456b" d="M212.16,455c-1.21,0-1.94-.05-2-.05a5,5,0,0,1,.75-10c1.34.1,31.32,1.79,42.95-29.26a5,5,0,1,1,9.36,3.5c-7.47,20-21.48,28.63-31.92,32.39A57.87,57.87,0,0,1,212.16,455Z"/><path fill="#3f456b" d="M400.84,455a57.87,57.87,0,0,1-19.1-3.4c-10.44-3.76-24.45-12.43-31.92-32.39a5,5,0,1,1,9.36-3.5C370.9,447,401.81,445,402.12,445a5,5,0,0,1,.76,10C402.78,455,402.05,455,400.84,455Z"/><path fill="#3f456b" d="M308.16,455c-1.21,0-1.94-.05-2-.05a5,5,0,0,1,.75-10c1.34.1,31.32,1.79,42.95-29.26a5,5,0,1,1,9.36,3.5c-7.47,20-21.48,28.63-31.92,32.39A57.87,57.87,0,0,1,308.16,455Z"/><path fill="#3f456b" d="M110.84,375a57.87,57.87,0,0,1-19.1-3.4c-10.44-3.76-24.45-12.43-31.92-32.39a5,5,0,0,1,9.36-3.5C80.9,367,111.81,365,112.12,365a5,5,0,0,1,.76,10C112.78,375,112.05,375,110.84,375Z"/><path fill="#3f456b" d="M18.16,375c-1.21,0-1.94-.05-2-.05a5,5,0,0,1,.75-10c1.34.09,31.32,1.79,43-29.26a5,5,0,1,1,9.36,3.5c-7.47,20-21.48,28.63-31.92,32.39A57.87,57.87,0,0,1,18.16,375Z"/><path fill="#3f456b" d="M206.84,375a57.87,57.87,0,0,1-19.1-3.4c-10.44-3.76-24.45-12.43-31.92-32.39a5,5,0,0,1,9.36-3.5C176.9,367,207.81,365,208.12,365a5,5,0,0,1,.76,10C208.78,375,208.05,375,206.84,375Z"/><path fill="#3f456b" d="M114.16,375c-1.21,0-1.94-.05-2-.05a5,5,0,0,1,.75-10c1.34.09,31.32,1.79,42.95-29.26a5,5,0,1,1,9.36,3.5c-7.47,20-21.48,28.63-31.92,32.39A57.87,57.87,0,0,1,114.16,375Z"/><path fill="#3f456b" d="M398.84,375a57.87,57.87,0,0,1-19.1-3.4c-10.44-3.76-24.45-12.43-31.92-32.39a5,5,0,1,1,9.36-3.5C368.9,367,399.81,365,400.12,365a5,5,0,0,1,.76,10C400.78,375,400.05,375,398.84,375Z"/><path fill="#3f456b" d="M306.16,375c-1.21,0-1.94-.05-2-.05a5,5,0,0,1,.75-10c1.34.09,31.32,1.79,42.95-29.26a5,5,0,1,1,9.36,3.5c-7.47,20-21.48,28.63-31.92,32.39A57.87,57.87,0,0,1,306.16,375Z"/><path fill="#3f456b" d="M494.84,375a57.87,57.87,0,0,1-19.1-3.4c-10.44-3.76-24.45-12.43-31.92-32.39a5,5,0,1,1,9.36-3.5C464.9,367,495.81,365,496.12,365a5,5,0,0,1,.76,10C496.78,375,496.05,375,494.84,375Z"/><path fill="#3f456b" d="M402.16,375c-1.21,0-1.94-.05-2-.05a5,5,0,0,1,.75-10c1.34.09,31.32,1.79,42.95-29.26a5,5,0,1,1,9.36,3.5c-7.47,20-21.48,28.63-31.92,32.39A57.87,57.87,0,0,1,402.16,375Z"/></g></svg>